# xmcd
#
# Track frame offsets: 
#        150
#        17660
#        38217
#        60333
#        91684
#
# Disc length: 1248 seconds
#
# Revision: 0
# Processed by: cddbd v1.5.2PL0 Copyright (c) Steve Scherf et al.
# Submitted via: ExactAudioCopy v1.0b3
#
DISCID=2d04de05
DTITLE=Johnny O - Diana
DYEAR=1900
DGENRE=
TTITLE0=Diana (Radio Version)
TTITLE1=Diana (Extended Version)
TTITLE2=Fantasy Girl (Profiler's Freestyle Mix)
TTITLE3=Fantasy Girl (Profiler's Slow Jam)
TTITLE4=Data
EXTD=
EXTT0=
EXTT1=
EXTT2=
EXTT3=
EXTT4=
PLAYORDER=
